<svg width="24" height="24" viewBox="0 0 24 24" fill="none" xmlns="http://www.w3.org/2000/svg">
<path d="M20.75 13.167V13.197C20.75 14.7287 20.75 15.9414 20.6416 16.9033C20.5307 17.8867 20.2987 18.7007 19.7686 19.3916C19.5159 19.7209 19.2209 20.0159 18.8916 20.2686C18.2007 20.7987 17.3867 21.0307 16.4033 21.1416C15.4414 21.25 14.2288 21.25 12.697 21.25H12.667H11.333H11.303C9.77122 21.25 8.55856 21.25 7.59668 21.1416C6.61332 21.0307 5.79932 20.7987 5.1084 20.2686C4.77907 20.0159 4.48415 19.7209 4.23145 19.3916C3.70131 18.7007 3.46926 17.8867 3.3584 16.9033C3.24999 15.9414 3.25 14.7287 3.25 13.197V13.167V13.1338C3.24999 12.3841 3.24998 11.7585 3.30664 11.2559C3.36585 10.7309 3.49497 10.2477 3.81836 9.82617C3.96466 9.63551 4.13551 9.46466 4.32617 9.31836C4.74767 8.99499 5.23089 8.86586 5.75586 8.80664C6.25862 8.74998 6.88435 8.74999 7.6343 8.75H7.66699H16.333H16.3657C17.1157 8.74999 17.7414 8.74998 18.2441 8.80664C18.7691 8.86586 19.2523 8.99499 19.6738 9.31836C19.8645 9.46466 20.0353 9.63551 20.1816 9.82617C20.505 10.2477 20.6341 10.7309 20.6934 11.2559C20.75 11.7585 20.75 12.3841 20.75 13.1338V13.167Z" fill="#3F3F46"/>
<path d="M21.75 10.5C22.3023 10.5 22.75 10.9477 22.75 11.5C22.75 12.0523 22.3023 12.5 21.75 12.5H19.75C19.1977 12.5 18.75 12.0523 18.75 11.5C18.75 10.9477 19.1977 10.5 19.75 10.5H21.75Z" fill="#3F3F46"/>
<path d="M4.25 10.5C4.80228 10.5 5.25 10.9477 5.25 11.5C5.25 12.0523 4.80228 12.5 4.25 12.5H2.25C1.69772 12.5 1.25 12.0523 1.25 11.5C1.25 10.9477 1.69772 10.5 2.25 10.5H4.25Z" fill="#3F3F46"/>
<path d="M15.7295 5.35449C15.7327 5.40141 15.7354 5.4499 15.7377 5.5H20C20.5523 5.5 21 5.94772 21 6.5C21 7.05229 20.5523 7.5 20 7.5H4C3.44772 7.5 3 7.05229 3 6.5C3 5.94772 3.44772 5.5 4 5.5H8.26232C8.26461 5.4499 8.26731 5.40141 8.27051 5.35449C8.29215 5.03744 8.33872 4.73762 8.45898 4.44727C8.73809 3.77358 9.27358 3.23809 9.94727 2.95899C10.2376 2.83872 10.5374 2.79215 10.8545 2.77051C11.1556 2.74996 11.5217 2.74998 11.9594 2.75H12H12.0406C12.4783 2.74998 12.8444 2.74996 13.1455 2.77051C13.4626 2.79215 13.7624 2.83872 14.0527 2.95899C14.7264 3.23809 15.2619 3.77358 15.541 4.44727C15.6613 4.73762 15.7079 5.03744 15.7295 5.35449Z" fill="#3F3F46"/>
</svg>
