<svg width="24" height="24" viewBox="0 0 24 24" fill="none" xmlns="http://www.w3.org/2000/svg">
<path fill-rule="evenodd" clip-rule="evenodd" d="M3.5 12.25C2.25736 12.25 1.25 13.2574 1.25 14.5C1.25 15.7138 2.21122 16.7032 3.41401 16.7484L3.7043 17.9095C4.12164 19.5789 5.62158 20.75 7.34233 20.75H16.6577C18.3784 20.75 19.8784 19.5789 20.2957 17.9095L20.586 16.7484C21.7888 16.7032 22.75 15.7138 22.75 14.5C22.75 13.2574 21.7426 12.25 20.5 12.25H18.6056C18.0626 12.25 17.5319 12.4107 17.0801 12.7119L15.1387 14.0062C15.0547 14.0621 14.9453 14.0621 14.8613 14.0062L12.9199 12.7119C12.4681 12.4107 11.9374 12.25 11.3944 12.25H3.5ZM12.0878 13.9599L14.0293 15.2542L3.5 15.25C3.08579 15.25 2.75 14.9142 2.75 14.5C2.75 14.0858 3.08579 13.75 3.5 13.75H11.3944C11.6412 13.75 11.8825 13.823 12.0878 13.9599ZM21.25 14.5C21.25 14.9142 20.9142 15.25 20.5 15.25H18.5L15.9707 15.2542L17.9122 13.9599C18.1175 13.823 18.3588 13.75 18.6056 13.75H20.5C20.9142 13.75 21.25 14.0858 21.25 14.5Z" fill="#3F3F46"/>
<path fill-rule="evenodd" clip-rule="evenodd" d="M14.8543 3.25C17.7027 3.25007 20.0909 5.16963 20.9588 7.79297C21.0711 8.13167 21.209 8.54677 21.2411 8.87598C21.2818 9.29528 21.189 9.69035 20.8983 10.0586C20.5876 10.4522 20.1814 10.6177 19.7616 10.6885C19.3974 10.7499 18.9511 10.7501 18.4754 10.75H5.52426C5.04868 10.7501 4.60222 10.7499 4.23813 10.6885C3.81856 10.6177 3.413 10.4519 3.10238 10.0586C2.81166 9.69033 2.71882 9.29529 2.75961 8.87598C2.79167 8.54678 2.92862 8.13166 3.04086 7.79297C3.90875 5.16951 6.29789 3.25 9.14633 3.25H14.8543ZM11.0301 5.96973C10.7372 5.67701 10.2624 5.67689 9.96957 5.96973L8.96957 6.96973C8.67691 7.26258 8.67691 7.73742 8.96957 8.03027C9.26241 8.32311 9.73721 8.32299 10.0301 8.03027L11.0301 7.03027C11.323 6.73738 11.323 6.26262 11.0301 5.96973ZM14.9989 6C14.4467 6.00008 13.9989 6.44777 13.9989 7C13.9989 7.55223 14.4467 7.99992 14.9989 8H15.0077C15.56 8 16.0077 7.55228 16.0077 7C16.0077 6.44772 15.56 6 15.0077 6H14.9989Z" fill="#3F3F46"/>
</svg>
