<svg width="16" height="16" viewBox="0 0 16 16" fill="none" xmlns="http://www.w3.org/2000/svg">
<path d="M13.6666 6.66675H2.33325C2.33325 4.45761 4.12411 2.66675 6.33325 2.66675H9.66659C11.8757 2.66675 13.6666 4.45761 13.6666 6.66675Z" stroke="#52525B" stroke-linecap="round" stroke-linejoin="round"/>
<path d="M6.99992 10.6666H2.66659M2.66659 10.6666H2.33325C1.78097 10.6666 1.33325 10.2189 1.33325 9.66664C1.33325 9.11437 1.78097 8.66664 2.33325 8.66664H7.99992L9.33325 9.99997L10.6666 8.6665L13.6666 8.66664C14.2189 8.66664 14.6666 9.11437 14.6666 9.66664C14.6666 10.2189 14.2189 10.6666 13.6666 10.6666H13.3333M2.66659 10.6666L3.08077 12.3234C3.22915 12.9169 3.76247 13.3333 4.37429 13.3333H11.6255C12.2374 13.3333 12.7707 12.9169 12.9191 12.3234L13.3333 10.6666M13.3333 10.6666H11.9999" stroke="#52525B" stroke-linecap="round" stroke-linejoin="round"/>
<path d="M6.66667 4.33325L6 4.99992" stroke="#52525B" stroke-linecap="round" stroke-linejoin="round"/>
<path d="M10.0833 4.66667H9.99992M10.1666 4.66667C10.1666 4.75871 10.092 4.83333 9.99992 4.83333C9.90785 4.83333 9.83325 4.75871 9.83325 4.66667C9.83325 4.57462 9.90785 4.5 9.99992 4.5C10.092 4.5 10.1666 4.57462 10.1666 4.66667Z" stroke="#52525B" stroke-linecap="round"/>
</svg>
